<svg width="220" height="223" viewBox="0 0 220 223" fill="none" xmlns="http://www.w3.org/2000/svg">
    <path opacity="0.7" d="M32.2198 205.299C75.177 228.595 144.825 228.6 187.782 205.299C230.739 181.998 230.739 144.217 187.782 120.916C144.825 97.6147 75.177 97.6147 32.2198 120.916C-10.7373 144.217 -10.7426 181.998 32.2198 205.299Z" fill="#F0F0F0"/>
    <path d="M58.6295 153.027C75.0296 153.027 88.3246 146.69 88.3246 138.874C88.3246 131.058 75.0296 124.722 58.6295 124.722C42.2293 124.722 28.9343 131.058 28.9343 138.874C28.9343 146.69 42.2293 153.027 58.6295 153.027Z" fill="#E0E0E0"/>
    <path d="M21.3113 137.953L24.649 136.047C24.649 136.047 26.2527 127.227 25.0551 119.645C23.3681 108.982 16.1096 105.305 13.4749 106.362C10.8402 107.42 10.2206 110.58 14.9797 116.74C17.8123 120.364 21.4051 128.06 21.3113 137.953Z" fill="#E98A0D"/>
    <g opacity="0.1">
    <path opacity="0.1" d="M21.3113 137.953L24.649 136.047C24.649 136.047 26.2527 127.227 25.0551 119.645C23.3681 108.982 16.1096 105.305 13.4749 106.362C10.8402 107.42 10.2206 110.58 14.9797 116.74C17.8123 120.364 21.4051 128.06 21.3113 137.953Z" fill="black"/>
    </g>
    <path d="M22.5246 133.72H22.4985C22.4363 133.71 22.3805 133.676 22.3426 133.625C22.3048 133.575 22.2879 133.512 22.2955 133.449C23.6649 123.488 19.6503 112.554 15.1411 108.128C15.0983 108.083 15.0745 108.023 15.0747 107.961C15.0749 107.899 15.0991 107.84 15.1423 107.795C15.1854 107.751 15.2441 107.725 15.306 107.723C15.368 107.721 15.4283 107.743 15.4744 107.784C20.0669 112.272 24.1595 123.405 22.7641 133.517C22.7553 133.574 22.7262 133.626 22.6822 133.663C22.6382 133.7 22.5822 133.72 22.5246 133.72Z" fill="white"/>
    <path d="M12.0533 143.306C11.5326 143.608 10.4392 142.947 10.0226 142.665C9.30893 142.179 8.73173 141.517 8.346 140.744C7.91839 139.865 7.7729 138.876 7.92945 137.911C8.01281 137.402 8.13288 136.899 8.28872 136.407L8.71049 134.944C8.8789 134.471 8.95148 133.97 8.92397 133.47C8.7938 132.47 7.88258 131.767 7.10154 131.163C6.20595 130.497 5.27912 129.601 5.28432 128.409C5.34437 127.477 5.71045 126.591 6.32571 125.889C6.89847 125.16 7.58058 124.519 8.10127 123.749C8.50934 123.212 8.72403 122.553 8.71049 121.879C8.65245 121.465 8.51262 121.067 8.29914 120.708C7.81128 119.963 7.38465 119.179 7.02344 118.365C6.72664 117.521 6.7683 116.475 7.42958 115.871C7.72407 115.648 8.06023 115.488 8.41804 115.398C8.77586 115.309 9.14801 115.292 9.51235 115.35C10.1965 115.431 10.8543 115.662 11.4389 116.027C13.3499 117.068 14.4433 119.349 16.4688 120.192C17.2755 120.44 18.0962 120.64 18.9265 120.791C19.3388 120.868 19.7305 121.029 20.0767 121.266C20.4228 121.503 20.7156 121.809 20.9364 122.166C21.681 123.655 20.3011 125.483 20.827 127.065C21.2904 128.461 22.6442 128.992 23.4305 130.252C23.7394 130.808 23.8634 131.448 23.7846 132.08C23.7214 133.149 23.4619 134.197 23.0191 135.173C22.522 136.14 21.9546 137.069 21.3217 137.953C21.28 137.984 12.1314 143.275 12.0533 143.306Z" fill="#E98A0D"/>
    <path d="M17.4686 140.416C17.4374 140.415 17.4066 140.408 17.3781 140.396C17.3496 140.383 17.3239 140.365 17.3026 140.342C17.2812 140.319 17.2646 140.292 17.2538 140.263C17.243 140.233 17.2381 140.202 17.2395 140.171C17.6301 130.721 13.1781 120.291 9.94983 117.261C9.92726 117.239 9.9091 117.214 9.89636 117.186C9.88362 117.158 9.87657 117.127 9.8756 117.096C9.87464 117.065 9.87977 117.034 9.89072 117.005C9.90167 116.976 9.91822 116.95 9.93941 116.927C9.96061 116.905 9.98605 116.887 10.0143 116.874C10.0425 116.861 10.0729 116.854 10.1039 116.853C10.1348 116.852 10.1657 116.857 10.1946 116.868C10.2236 116.879 10.2501 116.896 10.2727 116.917C13.5739 120.005 18.1195 130.611 17.7186 140.187C17.7179 140.218 17.7109 140.25 17.6978 140.279C17.6848 140.307 17.666 140.333 17.6426 140.355C17.6193 140.376 17.5918 140.393 17.5619 140.403C17.532 140.414 17.5003 140.418 17.4686 140.416Z" fill="white"/>
    <path d="M16.0575 129.258H15.9846C13.7457 128.64 11.4463 128.269 9.12703 128.149C9.07023 128.14 9.01836 128.112 8.98086 128.068C8.94336 128.025 8.92273 127.969 8.92273 127.912C8.92273 127.854 8.94336 127.799 8.98086 127.755C9.01836 127.712 9.07023 127.683 9.12703 127.675C11.4867 127.796 13.8262 128.173 16.1043 128.8C16.1591 128.816 16.206 128.852 16.2367 128.9C16.2674 128.949 16.2797 129.006 16.2715 129.063C16.2634 129.119 16.2352 129.171 16.1921 129.209C16.149 129.247 16.0938 129.268 16.0366 129.268L16.0575 129.258Z" fill="white"/>
    <path d="M184.314 186.029C186.111 182.123 192.645 175.334 199.024 172.126C205.402 168.919 213.468 168.138 217.285 171.762C220.836 175.136 217.842 180.452 211.036 181.769C204.231 183.087 194.447 184.159 189.292 189.46L181.008 195.063L184.314 186.029Z" fill="#E98A0D"/>
    <path opacity="0.1" d="M184.314 186.029C186.111 182.123 192.645 175.334 199.024 172.126C205.402 168.919 213.468 168.138 217.285 171.762C220.836 175.136 217.842 180.452 211.036 181.769C204.231 183.087 194.447 184.159 189.292 189.46L181.008 195.063L184.314 186.029Z" fill="black"/>
    <path d="M181.575 191.236C181.64 191.259 181.71 191.261 181.776 191.242C181.842 191.222 181.899 191.181 181.94 191.126C190.672 178.999 206.413 173.121 213.973 173.688C214.056 173.694 214.139 173.667 214.202 173.612C214.266 173.557 214.305 173.48 214.311 173.397C214.314 173.356 214.309 173.314 214.296 173.275C214.283 173.236 214.262 173.2 214.235 173.169C214.208 173.138 214.175 173.113 214.138 173.095C214.101 173.077 214.061 173.066 214.02 173.063C206.324 172.48 190.292 178.447 181.43 190.767C181.406 190.8 181.388 190.838 181.379 190.878C181.37 190.919 181.368 190.96 181.375 191.001C181.382 191.041 181.397 191.08 181.419 191.115C181.44 191.15 181.469 191.18 181.503 191.204C181.525 191.219 181.549 191.23 181.575 191.236Z" fill="white"/>
    <path d="M179.649 200.676C181.284 198.77 185.626 196.38 191.333 195.38C197.649 194.271 204.413 195.536 206.996 193.605C210.094 191.282 208.829 187.164 203.627 185.513C198.425 183.862 186.673 186.606 180.643 196.088L179.649 200.676Z" fill="#E98A0D"/>
    <path d="M179.748 197.947C179.805 197.968 179.867 197.972 179.926 197.958C179.985 197.944 180.039 197.913 180.081 197.869C189.407 188.33 199.956 188.325 204.231 189.653C204.27 189.665 204.311 189.669 204.352 189.665C204.393 189.661 204.433 189.649 204.469 189.629C204.506 189.61 204.538 189.584 204.564 189.552C204.59 189.52 204.609 189.484 204.621 189.444C204.634 189.405 204.639 189.364 204.636 189.323C204.633 189.282 204.621 189.243 204.602 189.206C204.583 189.17 204.557 189.137 204.526 189.111C204.494 189.085 204.458 189.066 204.418 189.054C199.69 187.585 189.152 187.695 179.628 197.432C179.599 197.461 179.576 197.495 179.56 197.533C179.544 197.571 179.536 197.612 179.536 197.653C179.536 197.694 179.544 197.735 179.56 197.773C179.576 197.811 179.599 197.845 179.628 197.874C179.662 197.907 179.703 197.932 179.748 197.947Z" fill="white"/>
    <path d="M85.1066 151.725L91.2196 155.25L89.1837 156.427H97.3273V151.725L95.2914 152.902L89.1837 149.372L85.1066 151.725Z" fill="#E98A0D"/>
    <path d="M100.884 158.984C100.796 158.984 100.709 158.961 100.634 158.916L99.1132 158.036C99.0027 157.966 98.9226 157.857 98.8889 157.731C98.8551 157.604 98.8701 157.47 98.931 157.354C99.0003 157.241 99.1099 157.159 99.2376 157.124C99.3653 157.089 99.5014 157.105 99.6183 157.167L101.139 158.046C101.223 158.109 101.287 158.195 101.322 158.295C101.356 158.394 101.36 158.501 101.332 158.603C101.305 158.704 101.247 158.795 101.167 158.863C101.087 158.931 100.988 158.973 100.884 158.984Z" fill="#E98A0D"/>
    <path d="M164.945 195.968C164.857 195.969 164.77 195.945 164.695 195.901L161.763 194.208C161.679 194.127 161.625 194.019 161.61 193.903C161.595 193.786 161.619 193.668 161.679 193.568C161.74 193.467 161.832 193.39 161.942 193.348C162.051 193.307 162.172 193.303 162.284 193.339L165.21 195.031C165.295 195.093 165.358 195.179 165.393 195.278C165.428 195.377 165.432 195.484 165.405 195.585C165.378 195.686 165.321 195.777 165.242 195.845C165.162 195.914 165.064 195.957 164.96 195.968H164.945ZM157.827 191.855C157.739 191.855 157.653 191.834 157.577 191.792L154.645 190.1C154.57 190.076 154.502 190.036 154.445 189.982C154.388 189.928 154.344 189.862 154.316 189.788C154.288 189.715 154.277 189.636 154.284 189.558C154.291 189.479 154.316 189.404 154.356 189.336C154.397 189.269 154.452 189.212 154.517 189.169C154.583 189.125 154.658 189.098 154.735 189.088C154.813 189.077 154.893 189.085 154.967 189.11C155.042 189.135 155.11 189.176 155.166 189.231L158.097 190.923C158.18 190.986 158.242 191.072 158.276 191.17C158.309 191.269 158.312 191.375 158.285 191.475C158.257 191.575 158.201 191.665 158.122 191.733C158.043 191.8 157.946 191.843 157.842 191.855H157.827ZM150.709 187.747C150.621 187.747 150.535 187.724 150.459 187.679L147.527 185.971C147.417 185.901 147.337 185.792 147.303 185.666C147.269 185.539 147.284 185.405 147.345 185.289C147.415 185.177 147.525 185.096 147.653 185.062C147.78 185.028 147.916 185.044 148.032 185.107L150.964 186.799C151.047 186.862 151.109 186.948 151.142 187.046C151.176 187.145 151.179 187.251 151.151 187.351C151.124 187.451 151.067 187.541 150.988 187.609C150.909 187.677 150.812 187.719 150.709 187.731V187.747ZM143.591 183.638C143.503 183.639 143.417 183.615 143.341 183.571L140.409 181.878C140.299 181.808 140.219 181.699 140.185 181.573C140.151 181.447 140.166 181.312 140.227 181.196C140.297 181.084 140.406 181.001 140.534 180.967C140.661 180.932 140.798 180.947 140.915 181.009L143.841 182.701C143.925 182.763 143.989 182.849 144.024 182.948C144.059 183.047 144.063 183.154 144.036 183.255C144.009 183.356 143.952 183.447 143.873 183.515C143.793 183.584 143.695 183.627 143.591 183.638ZM136.473 179.53C136.385 179.53 136.299 179.507 136.223 179.462L133.292 177.77C133.207 177.688 133.153 177.581 133.138 177.464C133.123 177.348 133.148 177.23 133.208 177.129C133.268 177.029 133.361 176.951 133.47 176.91C133.58 176.868 133.7 176.865 133.812 176.901L136.744 178.593C136.856 178.663 136.937 178.773 136.97 178.901C137.004 179.028 136.988 179.164 136.926 179.28C136.879 179.358 136.812 179.422 136.733 179.465C136.653 179.509 136.564 179.532 136.473 179.53ZM129.355 175.422C129.267 175.421 129.181 175.397 129.105 175.354L126.174 173.662C126.099 173.638 126.03 173.598 125.973 173.544C125.916 173.49 125.872 173.423 125.844 173.35C125.817 173.276 125.806 173.198 125.813 173.119C125.82 173.041 125.844 172.966 125.885 172.898C125.925 172.831 125.98 172.773 126.046 172.73C126.111 172.687 126.186 172.66 126.264 172.649C126.342 172.639 126.421 172.647 126.496 172.671C126.57 172.696 126.638 172.738 126.694 172.792L129.626 174.485C129.736 174.555 129.817 174.664 129.85 174.79C129.884 174.916 129.869 175.051 129.808 175.167C129.762 175.245 129.695 175.31 129.616 175.355C129.536 175.4 129.446 175.423 129.355 175.422ZM122.237 171.308C122.15 171.309 122.064 171.287 121.987 171.246L119.056 169.554C118.972 169.472 118.918 169.364 118.903 169.248C118.887 169.131 118.912 169.013 118.972 168.913C119.032 168.812 119.125 168.735 119.235 168.693C119.344 168.652 119.465 168.648 119.577 168.684L122.508 170.376C122.591 170.439 122.653 170.525 122.686 170.624C122.72 170.722 122.723 170.828 122.695 170.929C122.668 171.029 122.611 171.119 122.532 171.186C122.453 171.254 122.356 171.296 122.253 171.308H122.237ZM115.119 167.226C115.032 167.226 114.945 167.203 114.869 167.158L111.938 165.466C111.827 165.396 111.747 165.287 111.714 165.161C111.68 165.034 111.695 164.9 111.756 164.784C111.825 164.671 111.935 164.589 112.062 164.554C112.19 164.52 112.326 164.535 112.443 164.597L115.375 166.289C115.459 166.351 115.523 166.438 115.558 166.537C115.592 166.636 115.596 166.744 115.568 166.845C115.541 166.946 115.483 167.037 115.403 167.105C115.323 167.173 115.224 167.215 115.119 167.226ZM108.002 163.118C107.914 163.118 107.827 163.095 107.752 163.05L104.82 161.358C104.736 161.276 104.682 161.168 104.667 161.052C104.652 160.936 104.676 160.818 104.736 160.717C104.797 160.616 104.889 160.539 104.999 160.498C105.108 160.456 105.229 160.453 105.341 160.488L108.272 162.181C108.384 162.251 108.465 162.361 108.499 162.488C108.533 162.616 108.517 162.752 108.455 162.868C108.404 162.941 108.336 162.999 108.257 163.038C108.178 163.078 108.09 163.096 108.002 163.092V163.118Z" fill="#E98A0D"/>
    <path d="M170.651 199.259C170.564 199.26 170.478 199.238 170.401 199.197L168.881 198.317C168.77 198.247 168.69 198.138 168.657 198.011C168.623 197.885 168.638 197.751 168.699 197.635C168.768 197.522 168.878 197.44 169.005 197.405C169.133 197.37 169.269 197.385 169.386 197.447L170.901 198.327C170.984 198.39 171.046 198.476 171.08 198.574C171.113 198.672 171.117 198.777 171.09 198.877C171.063 198.978 171.007 199.067 170.929 199.135C170.851 199.203 170.754 199.247 170.651 199.259Z" fill="#E98A0D"/>
    <path d="M203.856 67.94L203.387 67.6693L188.839 59.3382C185.473 57.1112 181.513 55.9516 177.478 56.011C172.39 56.011 167.256 57.8542 161.211 61.2179C140.087 72.9231 122.039 106.674 122.039 128.835V134.943C122.039 161.8 157.363 194.583 157.363 194.583L172.01 203.044C172.017 203.054 172.027 203.062 172.038 203.066C172.049 203.071 172.061 203.072 172.073 203.07C171.583 202.492 187.636 179.072 202.794 133.386C219.529 82.7954 204.168 68.2316 203.856 67.94ZM179.133 148.241C167.157 155.151 157.145 151.532 154.307 140.384C148.824 139.629 144.861 135.411 143.638 128.486C142.102 106.096 153.984 88.2939 171 81.0667C178.29 78.4164 184.372 80.3065 187.631 85.7842C197.628 84.0659 204.783 90.9182 204.783 103.821C204.783 120.171 193.286 140.072 179.133 148.241Z" fill="#455A64"/>
    <path d="M204.783 103.821C204.783 120.171 193.302 140.072 179.133 148.242C167.158 155.151 157.145 151.532 154.307 140.384C157.905 140.905 162.154 139.942 166.72 137.302C179.696 129.819 190.203 111.606 190.203 96.6409C190.203 92.1941 189.277 88.5337 187.631 85.7844C197.628 84.0661 204.783 90.9184 204.783 103.821Z" fill="#263238"/>
    <path d="M159.149 138.822L167.288 143.524V127.758L159.149 123.056V138.822Z" fill="#E98A0D"/>
    <path opacity="0.2" d="M159.149 138.822L167.288 143.524V127.758L159.149 123.056V138.822Z" fill="black"/>
    <path d="M197.988 110.033L179.123 101.191L160.258 131.819L167.288 127.757V143.524L176.202 138.379V128.064L182.039 124.696V135.005L190.964 129.85V114.084L197.988 110.033Z" fill="#E98A0D"/>
    <path d="M170.979 96.4893L179.123 101.191L160.258 131.818L152.115 127.116L170.979 96.4893Z" fill="#E98A0D"/>
    <path opacity="0.1" d="M170.979 96.4893L179.123 101.191L160.258 131.818L152.115 127.116L170.979 96.4893Z" fill="black"/>
    <path d="M170.979 96.4893L179.123 101.191L197.988 110.032L189.844 105.331L170.979 96.4893Z" fill="#E98A0D"/>
    <path opacity="0.4" d="M170.979 96.4893L179.123 101.191L197.988 110.032L189.844 105.331L170.979 96.4893Z" fill="white"/>
    <path d="M176.202 138.38L182.039 135.006V124.696L176.202 128.065V138.38Z" fill="#E98A0D"/>
    <path opacity="0.2" d="M176.202 138.38L182.039 135.006V124.696L176.202 128.065V138.38Z" fill="black"/>
    <path d="M203.856 67.9398L203.387 67.669C196.327 63.7013 186.892 64.2324 176.525 70.21C160.904 79.244 147.366 98.2181 140.967 118.114C138.426 126.002 137.353 130.178 137.353 137.806V143.935C137.353 164.632 160.43 192.474 171.224 202.414C171.465 202.638 171.729 202.837 172.01 203.008C172.017 203.017 172.027 203.025 172.038 203.03C172.049 203.034 172.061 203.036 172.073 203.034C172.703 203.423 173.408 203.676 174.141 203.776C174.875 203.876 175.622 203.821 176.333 203.615C177.044 203.409 177.705 203.056 178.271 202.579C178.838 202.103 179.298 201.512 179.623 200.847C188.922 181.805 216.04 124.399 216.04 102.139V96.0311C216.04 82.2328 211.375 72.4594 203.856 67.9398ZM154.307 140.384C154.161 139.816 154.026 139.223 153.921 138.613C153.616 136.905 153.469 135.173 153.484 133.438C153.484 117.088 164.939 97.1923 179.133 89.0226C180.63 88.1557 182.198 87.4172 183.82 86.8149C185.058 86.3544 186.336 86.0058 187.636 85.7735C197.634 84.0552 204.788 90.9075 204.788 103.81C204.788 120.16 193.307 140.061 179.139 148.231C167.173 155.151 157.145 151.532 154.307 140.384Z" fill="#37474F"/>
    <path d="M74.3595 46.2065H63.4249C61.0524 46.2065 58.7771 45.264 57.0995 43.5864C55.4219 41.9088 54.4794 39.6335 54.4794 37.261V34.7356C54.4794 32.1007 55.5261 29.5738 57.3893 27.7106C59.2524 25.8475 61.7794 24.8008 64.4143 24.8008C67.0491 24.8008 69.5761 25.8475 71.4392 27.7106C73.3024 29.5738 74.3491 32.1007 74.3491 34.7356L74.3595 46.2065Z" fill="#263238"/>
    <path d="M56.0676 29.7887L53.7401 28.5547C53.8136 28.3994 53.9178 28.2607 54.0465 28.1469C54.1752 28.0331 54.3256 27.9466 54.4886 27.8926C54.6516 27.8386 54.8239 27.8182 54.9951 27.8326C55.1663 27.8471 55.3327 27.8961 55.4844 27.9767C55.7957 28.146 56.0299 28.4287 56.1384 28.766C56.247 29.1034 56.2216 29.4696 56.0676 29.7887Z" fill="#263238"/>
    <path d="M56.2602 30.0491L53.813 30.9655C53.7447 30.808 53.7091 30.6383 53.7083 30.4667C53.7074 30.2951 53.7414 30.1251 53.808 29.9669C53.8747 29.8088 53.9727 29.6658 54.0961 29.5466C54.2196 29.4273 54.3659 29.3344 54.5263 29.2732C54.8598 29.1572 55.2249 29.1729 55.5472 29.3171C55.8695 29.4613 56.1245 29.7231 56.2602 30.0491Z" fill="#263238"/>
    <path d="M77.9835 58.8853L80.9931 64.3994L76.812 67.987L72.6308 61.5043L77.9835 58.8853Z" fill="#9A4A4D"/>
    <path d="M69.5691 47.0552C71.1312 47.1906 72.7766 47.8623 73.9065 50.1793L78.5927 59.8017C78.5927 59.8017 77.8013 62.9676 73.6774 63.3893L72.0424 60.8796L69.5691 47.0552Z" fill="#E98A0D"/>
    <path opacity="0.1" d="M69.5691 47.0552C71.1312 47.1906 72.7766 47.8623 73.9065 50.1793L78.5927 59.8017C78.5927 59.8017 77.8013 62.9676 73.6774 63.3893L72.0424 60.8796L69.5691 47.0552Z" fill="black"/>
    <path d="M41.7641 122.758C40.9779 122.352 40.4832 123.347 39.7698 124.149C39.2492 124.706 38.4941 125.596 38.3796 126.231C38.2078 127.179 39.0617 128.663 40.0042 129.486C40.9466 130.308 42.0401 130.892 42.3837 132.688C42.7274 134.484 43.4251 135.552 45.2892 136.359C47.3303 137.239 50.0639 136.958 50.9908 136.359C52.0894 135.646 51.0845 134.87 49.5485 132.667C47.5386 129.793 45.9713 127.736 45.9713 125.055L41.7641 122.758Z" fill="#263238"/>
    <path d="M43.373 120.4L41.7224 122.821C41.3735 123.323 41.2369 123.943 41.3422 124.546C41.4475 125.148 41.7862 125.685 42.2848 126.039L42.3368 126.075C42.8378 126.376 43.4283 126.492 44.0057 126.402C44.5831 126.313 45.1109 126.024 45.4974 125.586L48.0697 122.774L43.373 120.4Z" fill="#B16668"/>
    <path d="M73.037 74.5009C73.1411 77.5834 73.6826 88.82 71.4333 94.7194C70.1855 98.069 68.6161 101.29 66.747 104.337C66.0753 105.487 46.7732 124.279 46.7732 124.279C46.7732 124.279 43.4929 124.04 42.9722 120.863C42.9722 120.863 50.8815 107.414 52.5946 104.659C54.3077 101.905 60.3737 97.6717 60.3737 97.6717L59.8218 71.8193L73.037 74.5009Z" fill="#37474F"/>
    <path d="M69.4226 138.878L73.5048 137.95L72.1529 132.004L68.0707 132.932L69.4226 138.878Z" fill="#B16668"/>
    <path d="M66.2367 83.9151C67.6346 82.6241 68.8865 81.1836 69.9701 79.6194C73.0942 75.3081 72.61 71.481 72.61 71.481H71.3291L54.4534 71.8246C52.7768 74.5687 52.4123 78.729 52.9798 82.7592C54.1514 91.1684 61.1183 105.722 61.1183 105.722C61.0193 106.872 60.5351 111.705 61.639 115.99C63.3729 122.759 68.0904 134.214 68.0904 134.214C68.0904 134.214 71.0427 134.636 72.511 132.928C72.511 132.928 69.9076 109.7 69.1942 103.769C68.4184 97.3021 66.2367 83.9151 66.2367 83.9151Z" fill="#37474F"/>
    <path d="M73.0473 135.932L72.9119 135.349C73.3441 135.432 75.177 138.473 76.9942 139.796C78.9832 141.243 80.7119 142.097 81.6023 142.753C82.7895 143.623 81.0816 145.414 78.1397 145.57C76.687 145.648 74.0418 145.206 73.2243 144.435C72.4069 143.665 71.8185 142.352 71.1728 141.832C70.5272 141.311 69.215 140.79 68.7724 140.077C68.5329 139.686 68.4912 138.713 68.5225 137.88C68.5537 137.047 68.5694 136.276 68.8349 136.286C68.8349 136.375 68.9338 136.734 68.9338 136.734C69.7025 137.123 70.5568 137.311 71.4175 137.281C72.1049 137.239 73.3858 137.078 73.0473 135.932Z" fill="#263238"/>
    <path d="M68.6631 99.8012C68.6631 99.8012 66.6949 85.8206 66.2367 83.9148C66.2367 83.9148 69.7045 82.5923 70.7719 81.3843C70.7719 81.3843 70.0117 83.0765 67.528 84.5813L68.6631 99.8012Z" fill="#263238"/>
    <path d="M58.2388 99.2598C58.2388 99.2598 60.2695 104.586 61.1131 105.737C61.1131 105.737 60.8996 109.7 60.9308 110.502L59.8322 111.454C59.8322 111.454 59.7801 108.127 60.3528 106.112C59.35 103.931 58.6392 101.627 58.2388 99.2598Z" fill="#263238"/>
    <path d="M72.0893 61.9886C72.3548 64.4358 73.0369 74.4852 73.0369 74.4852C64.961 78.7966 54.9428 75.938 53.412 74.1624C54.2111 71.2328 55.7765 68.5692 57.9472 66.4457L55.3438 59.156C55.3438 59.156 55.0313 58.4062 55.0366 58.401C55.198 58.1303 59.1032 54.6104 57.1818 49.0285C57.1139 48.8259 57.093 48.6104 57.1209 48.3985C57.1487 48.1866 57.2245 47.9839 57.3425 47.8057C57.4605 47.6275 57.6175 47.4785 57.8017 47.3701C57.9859 47.2617 58.1924 47.1967 58.4054 47.1801L60.7225 46.9926L67.0125 46.8052C68.5121 46.8937 69.5847 47.0343 69.5847 47.0343C70.548 47.9403 72.0684 50.4136 73.0525 52.9337C73.6722 54.5791 74.3595 57.1774 72.0893 61.9886Z" fill="#E98A0D"/>
    <path opacity="0.1" d="M57.0152 61.7962L57.9368 58.2295L59.0771 66.4669L56.7704 67.7478L57.9472 66.4616L56.7548 63.1344L57.0152 61.7962Z" fill="black"/>
    <path d="M70.8084 29.1279C71.8498 29.7476 73.1567 32.3875 73.0266 37.9172C72.9172 42.6035 71.3968 43.7698 70.6366 44.1031C69.8764 44.4363 68.4028 44.2332 66.9917 43.9937V46.8107C66.9917 46.8107 69.1214 50.7523 68.6423 52.3248C67.6009 52.5018 66.294 51.8041 64.4455 50.5492C63.0705 49.5223 61.8225 48.3354 60.7278 47.0137L60.759 40.5415C60.759 40.5415 59.9155 41.359 58.4888 40.1093C57.312 39.068 56.9267 37.3445 57.8327 36.4072C58.0707 36.1857 58.3579 36.0239 58.6707 35.9351C58.9835 35.8464 59.3129 35.8333 59.6317 35.8968C59.9506 35.9604 60.2498 36.0988 60.5046 36.3007C60.7595 36.5026 60.9627 36.7622 61.0975 37.0581C61.0975 37.0581 63.3833 37.1466 66.419 35.496C67.5998 34.8545 68.6128 33.9435 69.3755 32.837C70.1381 31.7306 70.6291 30.4598 70.8084 29.1279Z" fill="#B16668"/>
    <path d="M67.7987 36.7401C67.8007 36.8568 67.7682 36.9715 67.7053 37.0698C67.6424 37.1681 67.5519 37.2457 67.4452 37.2929C67.3384 37.3401 67.2201 37.3547 67.1051 37.3351C66.9901 37.3154 66.8834 37.2622 66.7984 37.1822C66.7134 37.1022 66.6539 36.999 66.6273 36.8853C66.6007 36.7717 66.6081 36.6527 66.6488 36.5433C66.6894 36.4339 66.7614 36.3389 66.8557 36.2702C66.95 36.2015 67.0625 36.1621 67.1791 36.1569C67.3384 36.1527 67.493 36.2117 67.609 36.3209C67.7251 36.4301 67.7933 36.5808 67.7987 36.7401Z" fill="#263238"/>
    <g style="mix-blend-mode:multiply" opacity="0.5">
    <g style="mix-blend-mode:multiply" opacity="0.5">
    <path d="M67.9497 40.6973L69.3192 41.1346C69.2941 41.226 69.2509 41.3114 69.1922 41.3858C69.1335 41.4601 69.0605 41.522 68.9774 41.5676C68.8944 41.6133 68.8031 41.6418 68.7088 41.6515C68.6146 41.6612 68.5194 41.6519 68.4288 41.6241C68.2442 41.562 68.091 41.4306 68.0016 41.2577C67.9122 41.0847 67.8936 40.8837 67.9497 40.6973Z" fill="#9A4A4D"/>
    </g>
    </g>
    <path d="M72.6256 34.9284L71.4436 34.1057C71.4932 34.0251 71.5587 33.9555 71.6363 33.9012C71.7138 33.8469 71.8016 33.8091 71.8943 33.79C71.987 33.771 72.0826 33.7712 72.1753 33.7905C72.2679 33.8099 72.3556 33.8481 72.4329 33.9026C72.592 34.0151 72.7011 34.185 72.737 34.3765C72.773 34.568 72.733 34.7659 72.6256 34.9284Z" fill="#263238"/>
    <path d="M72.3496 36.3133C72.356 36.3921 72.3466 36.4714 72.3219 36.5466C72.2972 36.6217 72.2577 36.6911 72.2058 36.7508C72.1539 36.8104 72.0906 36.8591 72.0196 36.894C71.9487 36.9288 71.8714 36.9492 71.7925 36.9538C71.6703 36.9651 71.5475 36.9395 71.44 36.8804C71.3324 36.8213 71.245 36.7314 71.1891 36.6222C71.1331 36.513 71.1111 36.3895 71.126 36.2677C71.1408 36.1459 71.1918 36.0313 71.2723 35.9387C71.3529 35.8461 71.4593 35.7798 71.5779 35.7482C71.6965 35.7166 71.8218 35.7213 71.9377 35.7616C72.0536 35.8019 72.1548 35.876 72.2282 35.9743C72.3016 36.0727 72.3439 36.1907 72.3496 36.3133Z" fill="#263238"/>
    <g style="mix-blend-mode:multiply" opacity="0.5">
    <g style="mix-blend-mode:multiply" opacity="0.5">
    <path d="M69.5691 35.98L69.6628 39.5259L71.5321 38.9479L69.5691 35.98Z" fill="#9A4A4D"/>
    </g>
    </g>
    <g style="mix-blend-mode:multiply" opacity="0.5">
    <g style="mix-blend-mode:multiply" opacity="0.5">
    <path d="M66.9709 43.9934C65.4609 43.7955 62.3575 42.9051 61.8733 41.6763C62.0684 42.2957 62.4481 42.8407 62.9615 43.2383C63.8884 44.0298 66.9709 44.9254 66.9709 44.9254V43.9934Z" fill="#9A4A4D"/>
    </g>
    </g>
    <path d="M48.4185 70.8561C48.455 70.3355 49.4079 64.9359 50.0587 61.9106L56.4216 63.858L55.3802 68.1017L50.0952 73.2201C49.5635 73.1209 49.0912 72.8188 48.7783 72.3776C48.4654 71.9364 48.3364 71.3908 48.4185 70.8561Z" fill="#B16668"/>
    <path d="M58.3899 47.2007C55.9478 47.4142 52.7299 47.7786 51.1991 54.7299C49.762 61.2438 49.4079 63.5192 49.4079 63.5192C49.4079 63.5192 51.2876 65.8988 56.1509 65.6384L57.9369 58.229C61.1912 53.9437 60.1446 50.8768 58.3899 47.2007Z" fill="#E98A0D"/>
    <path d="M78.9624 65.8159C79.8372 64.1913 80.0559 64.1184 80.5714 63.7331C81.0868 63.3478 84.2839 62.9 85.6065 62.7906C87.1685 62.6605 87.7153 62.9469 87.2831 64.285C86.3563 67.1489 83.5445 73.2305 82.9145 74.0741C82.5031 74.5948 82.4198 75.1155 80.6703 75.3029C79.0353 75.4643 76.9838 75.5528 76.3798 75.5893C75.7758 75.6257 74.9427 75.7767 75.4842 74.0012C76.1732 71.9928 76.971 70.0234 77.8742 68.1017C78.5459 66.6646 78.9624 65.8159 78.9624 65.8159Z" fill="#263238"/>
    <path d="M55.401 68.1015C55.401 68.1015 69.5431 69.5959 71.3707 69.0283C73.1983 68.4608 75.6664 66.6279 76.989 65.8729C78.3115 65.1179 79.2592 65.0502 79.2592 65.3522C79.2592 65.6542 78.1293 67.3985 77.8741 68.1119C77.619 68.8252 79.0926 68.8252 81.0295 68.3827C82.9665 67.9401 83.7424 66.8206 84.2474 67.4662C84.7525 68.1119 83.1748 71.3454 79.9569 72.5482C76.739 73.751 74.3491 72.9543 71.6935 73.0689C69.038 73.1834 53.8025 74.3706 50.1108 73.2095C50.0175 72.6219 50.0871 72.0199 50.3121 71.4691C50.537 70.9183 50.9086 70.4397 51.3865 70.0853C52.5802 69.1649 53.9447 68.4905 55.401 68.1015Z" fill="#B16668"/>
    <path d="M145.793 17.6986L149.673 15.4596C149.651 15.3025 149.641 15.1442 149.641 14.9858V13.8611C149.7 12.775 150.013 11.7179 150.556 10.7754C151.099 9.8328 151.856 9.03121 152.766 8.43544C153.037 8.25264 153.342 8.12658 153.663 8.06484C153.985 8.0031 154.315 8.00695 154.635 8.07616C154.921 5.23317 156.889 2.0205 159.285 0.640659C161.888 -0.85373 163.971 0.354279 163.971 3.34826V5.0249C163.961 5.84213 163.828 6.65318 163.575 7.4305L166.798 5.57162C167.756 5.01969 168.532 5.46749 168.532 6.57656C168.5 7.17912 168.326 7.76558 168.025 8.28845C167.723 8.81131 167.303 9.25589 166.798 9.58617L145.793 21.7131C144.835 22.265 144.06 21.8172 144.06 20.7082C144.092 20.1056 144.266 19.5192 144.567 18.9963C144.868 18.4734 145.288 18.0288 145.793 17.6986Z" fill="#F0F0F0"/>
    <path d="M127.22 43.7382L130.147 42.0459C130.13 41.9269 130.121 41.8069 130.121 41.6867V40.8431C130.165 40.0225 130.403 39.224 130.814 38.5121C131.224 37.8003 131.797 37.195 132.484 36.7453C132.689 36.6069 132.92 36.5115 133.162 36.465C133.405 36.4184 133.654 36.4217 133.896 36.4745C134.04 35.3409 134.429 34.2521 135.035 33.2832C135.641 32.3142 136.449 31.488 137.405 30.8614C139.358 29.7315 140.946 30.648 140.946 32.9026V34.1731C140.937 34.7889 140.836 35.3998 140.644 35.9851L143.075 34.5844C143.799 34.1678 144.388 34.5063 144.388 35.3394C144.362 35.795 144.231 36.2383 144.003 36.6335C143.775 37.0288 143.457 37.3649 143.075 37.6148L127.22 46.7634C126.497 47.1852 125.908 46.8467 125.908 46.0084C125.933 45.5534 126.064 45.1107 126.292 44.7162C126.52 44.3217 126.838 43.9866 127.22 43.7382Z" fill="#F0F0F0"/>
    </svg>
    